<svg id="Layer_1" data-name="Layer 1" xmlns="http://www.w3.org/2000/svg" viewBox="0 0 75.99 41.32"><defs><style>.cls-1{fill:#ece011;}.cls-2{fill:#f3f7dc;}.cls-3{fill:#f8f192;}.cls-4{fill:none;stroke:#231f20;stroke-miterlimit:10;}</style></defs><path class="cls-1" d="M328.48,472.39h-29a6.93,6.93,0,0,1-6.68-6.69v-.27a7,7,0,0,1,6.95-6.95h47.87c10.36,0,20.16,8.68,20.16,20.16a20.16,20.16,0,0,1-40.32,0A17.94,17.94,0,0,1,328.48,472.39Z" transform="translate(-292.33 -457.98)"/><path class="cls-2" d="M330.37,489H313.09a7,7,0,0,1-6.95-7,6.75,6.75,0,0,1,.13-1.36H327.6A20,20,0,0,0,330.37,489Z" transform="translate(-292.33 -457.98)"/><path class="cls-3" d="M299.51,472.39h29a17.94,17.94,0,0,0-1,6.25,20,20,0,0,0,.11,2.06H306.27a7,7,0,0,1-6.79-6.95,6.75,6.75,0,0,1,.14-1.36Z" transform="translate(-292.33 -457.98)"/><path class="cls-4" d="M328.48,472.39a17.94,17.94,0,0,0-1,6.25,20.16,20.16,0,0,0,40.32,0c0-11.48-9.8-20.12-20.16-20.16H299.78a7,7,0,0,0-6.95,6.95v.27a6.93,6.93,0,0,0,6.68,6.69h.11a6.75,6.75,0,0,0-.14,1.36,7,7,0,0,0,6.79,6.95h0a6.75,6.75,0,0,0-.13,1.36,7,7,0,0,0,6.95,7" transform="translate(-292.33 -457.98)"/><line class="cls-4" x1="43.54" y1="14.41" x2="36.15" y2="14.41"/><line class="cls-4" x1="7.18" y1="14.41" x2="36.15" y2="14.41"/><line class="cls-4" x1="13.97" y1="22.73" x2="35.17" y2="22.73"/><line class="cls-4" x1="38.05" y1="31.05" x2="20.76" y2="31.05"/><path class="cls-4" d="M339.4,478.35a7.69,7.69,0,0,0-.43,2.72,8.69,8.69,0,1,0,17.37,0,8.59,8.59,0,0,0-3.16-6.63,8.72,8.72,0,0,0-5.53-2.05H335.87" transform="translate(-292.33 -457.98)"/></svg>